# xmcd
#
# Track frame offsets:
#   150
#   17625
#   37283
#   49441
#   68948
#   87405
#   102712
#   117419
#   131977
#   146835
#   164093
#
# Disc length: 2422 seconds
#
# Revision: 0
# Processed by: cddbd v1.5.1PL0 Copyright (c) Steve Scherf et al.
# Submitted via: Media_Universe 3.0
#
DISCID=b609740b
DTITLE=Jsh Gracin - Josh Gracin
DYEAR=1900
DGENRE=Country
TTITLE0=I Want To Live
TTITLE1=Wheels
TTITLE2=Nothin To Loose
TTITLE3=Brass Bed
TTITLE4=Peace Of Mind
TTITLE5=Endless Helpless Hoping
TTITLE6=No One To Share The Blame
TTITLE7=I Would Look Good With You
TTITLE8=Turn It Up
TTITLE9=The Long One
TTITLE10=The Other Little Soldier
EXTD=
EXTT0=
EXTT1=
EXTT2=
EXTT3=
EXTT4=
EXTT5=
EXTT6=
EXTT7=
EXTT8=
EXTT9=
EXTT10=
PLAYORDER=
